<svg width="24" height="24" viewBox="0 0 24 24" fill="none" xmlns="http://www.w3.org/2000/svg">
<path d="M11.0133 2.81318C11.0562 2.58386 11.1778 2.37675 11.3573 2.2277C11.5368 2.07866 11.7627 1.99707 11.996 1.99707C12.2293 1.99707 12.4552 2.07866 12.6347 2.2277C12.8141 2.37675 12.9358 2.58386 12.9786 2.81318L14.0293 8.36924C14.1039 8.76426 14.2959 9.1276 14.5801 9.41185C14.8644 9.69611 15.2277 9.88807 15.6227 9.96269L21.1788 11.0133C21.4081 11.0562 21.6152 11.1778 21.7643 11.3573C21.9133 11.5368 21.9949 11.7627 21.9949 11.996C21.9949 12.2293 21.9133 12.4552 21.7643 12.6347C21.6152 12.8141 21.4081 12.9358 21.1788 12.9786L15.6227 14.0293C15.2277 14.1039 14.8644 14.2959 14.5801 14.5801C14.2959 14.8644 14.1039 15.2277 14.0293 15.6227L12.9786 21.1788C12.9358 21.4081 12.8141 21.6152 12.6347 21.7643C12.4552 21.9133 12.2293 21.9949 11.996 21.9949C11.7627 21.9949 11.5368 21.9133 11.3573 21.7643C11.1778 21.6152 11.0562 21.4081 11.0133 21.1788L9.96269 15.6227C9.88807 15.2277 9.69611 14.8644 9.41185 14.5801C9.1276 14.2959 8.76426 14.1039 8.36924 14.0293L2.81318 12.9786C2.58386 12.9358 2.37675 12.8141 2.2277 12.6347C2.07866 12.4552 1.99707 12.2293 1.99707 11.996C1.99707 11.7627 2.07866 11.5368 2.2277 11.3573C2.37675 11.1778 2.58386 11.0562 2.81318 11.0133L8.36924 9.96269C8.76426 9.88807 9.1276 9.69611 9.41185 9.41185C9.69611 9.1276 9.88807 8.76426 9.96269 8.36924L11.0133 2.81318Z" stroke="#8B6F47" stroke-width="1.9993" stroke-linecap="round" stroke-linejoin="round"/>
<path d="M19.9932 1.99902V5.99763" stroke="#8B6F47" stroke-width="1.9993" stroke-linecap="round" stroke-linejoin="round"/>
<path d="M21.9927 3.99902H17.9941" stroke="#8B6F47" stroke-width="1.9993" stroke-linecap="round" stroke-linejoin="round"/>
<path d="M3.99833 21.9927C5.10251 21.9927 5.99763 21.0976 5.99763 19.9934C5.99763 18.8893 5.10251 17.9941 3.99833 17.9941C2.89414 17.9941 1.99902 18.8893 1.99902 19.9934C1.99902 21.0976 2.89414 21.9927 3.99833 21.9927Z" stroke="#8B6F47" stroke-width="1.9993" stroke-linecap="round" stroke-linejoin="round"/>
</svg>
