<svg width="16" height="16" viewBox="0 0 16 16" fill="none" xmlns="http://www.w3.org/2000/svg">
<g clip-path="url(#clip0_439_13734)">
<path d="M14.41 2.42385L13.5576 1.57147C13.4827 1.49577 13.3935 1.43567 13.2952 1.39465C13.1969 1.35364 13.0915 1.33252 12.9849 1.33252C12.8784 1.33252 12.773 1.35364 12.6747 1.39465C12.5764 1.43567 12.4872 1.49577 12.4122 1.57147L1.57098 12.4127C1.49528 12.4877 1.43518 12.5769 1.39416 12.6752C1.35315 12.7735 1.33203 12.8789 1.33203 12.9854C1.33203 13.0919 1.35315 13.1974 1.39416 13.2957C1.43518 13.394 1.49528 13.4832 1.57098 13.5581L2.42337 14.4105C2.49783 14.487 2.58687 14.5479 2.68524 14.5894C2.7836 14.6309 2.88929 14.6523 2.99606 14.6523C3.10283 14.6523 3.20852 14.6309 3.30689 14.5894C3.40525 14.5479 3.49429 14.487 3.56876 14.4105L14.41 3.56925C14.4865 3.49478 14.5474 3.40574 14.5889 3.30737C14.6304 3.20901 14.6518 3.10332 14.6518 2.99655C14.6518 2.88978 14.6304 2.78409 14.5889 2.68573C14.5474 2.58736 14.4865 2.49832 14.41 2.42385Z" stroke="white" stroke-width="1.33185" stroke-linecap="round" stroke-linejoin="round"/>
<path d="M9.32422 4.66162L11.322 6.6594" stroke="white" stroke-width="1.33185" stroke-linecap="round" stroke-linejoin="round"/>
<path d="M3.32812 3.99561V6.65931" stroke="white" stroke-width="1.33185" stroke-linecap="round" stroke-linejoin="round"/>
<path d="M12.6523 9.32297V11.9867" stroke="white" stroke-width="1.33185" stroke-linecap="round" stroke-linejoin="round"/>
<path d="M6.66016 1.33203V2.66388" stroke="white" stroke-width="1.33185" stroke-linecap="round" stroke-linejoin="round"/>
<path d="M4.6598 5.32764H1.99609" stroke="white" stroke-width="1.33185" stroke-linecap="round" stroke-linejoin="round"/>
<path d="M13.984 10.6548H11.3203" stroke="white" stroke-width="1.33185" stroke-linecap="round" stroke-linejoin="round"/>
<path d="M7.32404 1.99756H5.99219" stroke="white" stroke-width="1.33185" stroke-linecap="round" stroke-linejoin="round"/>
</g>
<defs>
<clipPath id="clip0_439_13734">
<rect width="15.9822" height="15.9822" fill="white"/>
</clipPath>
</defs>
</svg>
