<svg width="20" height="20" viewBox="0 0 20 20" fill="none" xmlns="http://www.w3.org/2000/svg">
<path d="M12.8969 10.7397L14.1591 17.8434C14.1733 17.927 14.1615 18.013 14.1255 18.0898C14.0895 18.1666 14.0308 18.2305 13.9575 18.2731C13.8841 18.3157 13.7995 18.3348 13.7149 18.328C13.6303 18.3212 13.5499 18.2887 13.4843 18.2349L10.5015 15.9962C10.3575 15.8886 10.1826 15.8305 10.0029 15.8305C9.82313 15.8305 9.64821 15.8886 9.50422 15.9962L6.51647 18.2341C6.45092 18.2878 6.37055 18.3202 6.28609 18.327C6.20164 18.3339 6.11711 18.3148 6.04378 18.2723C5.97045 18.2299 5.91182 18.1661 5.87569 18.0894C5.83957 18.0128 5.82768 17.9269 5.8416 17.8434L7.10302 10.7397" stroke="#D4AF37" stroke-width="1.66634" stroke-linecap="round" stroke-linejoin="round"/>
<path d="M9.99902 11.6645C12.7599 11.6645 14.998 9.42641 14.998 6.66553C14.998 3.90464 12.7599 1.6665 9.99902 1.6665C7.23814 1.6665 5 3.90464 5 6.66553C5 9.42641 7.23814 11.6645 9.99902 11.6645Z" stroke="#D4AF37" stroke-width="1.66634" stroke-linecap="round" stroke-linejoin="round"/>
</svg>
