<svg width="24" height="24" viewBox="0 0 24 24" fill="none" xmlns="http://www.w3.org/2000/svg">
<path d="M15.4718 12.8855L16.9863 21.4085C17.0033 21.5089 16.9892 21.612 16.946 21.7042C16.9027 21.7963 16.8324 21.8731 16.7443 21.9241C16.6563 21.9752 16.5548 21.9982 16.4533 21.99C16.3519 21.9819 16.2553 21.9429 16.1766 21.8784L12.5978 19.1923C12.4251 19.0632 12.2152 18.9935 11.9996 18.9935C11.7839 18.9935 11.574 19.0632 11.4013 19.1923L7.81651 21.8774C7.73786 21.9418 7.64144 21.9807 7.54011 21.9889C7.43877 21.9971 7.33735 21.9742 7.24937 21.9232C7.1614 21.8723 7.09104 21.7957 7.0477 21.7038C7.00436 21.6118 6.99009 21.5088 7.0068 21.4085L8.52027 12.8855" stroke="black" stroke-width="1.9993" stroke-linecap="round" stroke-linejoin="round"/>
<path d="M11.994 13.9948C15.3066 13.9948 17.9919 11.3095 17.9919 7.99693C17.9919 4.68438 15.3066 1.99902 11.994 1.99902C8.68145 1.99902 5.99609 4.68438 5.99609 7.99693C5.99609 11.3095 8.68145 13.9948 11.994 13.9948Z" stroke="black" stroke-width="1.9993" stroke-linecap="round" stroke-linejoin="round"/>
</svg>
