<svg width="20" height="20" viewBox="0 0 20 20" fill="none" xmlns="http://www.w3.org/2000/svg">
<g clip-path="url(#clip0_36_20703)">
<path d="M16.6637 10.8312C16.6637 14.9971 13.7476 17.08 10.2816 18.2881C10.1002 18.3496 9.903 18.3466 9.72342 18.2797C6.2491 17.08 3.33301 14.9971 3.33301 10.8312V4.99901C3.33301 4.77804 3.42079 4.56612 3.57704 4.40987C3.73329 4.25362 3.94521 4.16584 4.16618 4.16584C5.83252 4.16584 7.91544 3.16604 9.36516 1.89962C9.54167 1.74881 9.76621 1.66595 9.99837 1.66595C10.2305 1.66595 10.4551 1.74881 10.6316 1.89962C12.0896 3.17437 14.1642 4.16584 15.8306 4.16584C16.0515 4.16584 16.2635 4.25362 16.4197 4.40987C16.576 4.56612 16.6637 4.77804 16.6637 4.99901V10.8312Z" stroke="#1A1A1A" stroke-width="1.66634" stroke-linecap="round" stroke-linejoin="round"/>
</g>
<defs>
<clipPath id="clip0_36_20703">
<rect width="19.9961" height="19.9961" fill="white"/>
</clipPath>
</defs>
</svg>
