<svg width="12" height="12" viewBox="0 0 12 12" fill="none" xmlns="http://www.w3.org/2000/svg">
<g clip-path="url(#clip0_118_13404)">
<path d="M5.12793 10.4883C5.2156 10.6401 5.3417 10.7662 5.49354 10.8539C5.64539 10.9415 5.81763 10.9877 5.99297 10.9877C6.1683 10.9877 6.34054 10.9415 6.49239 10.8539C6.64423 10.7662 6.77033 10.6401 6.858 10.4883" stroke="white" stroke-width="0.998888" stroke-linecap="round" stroke-linejoin="round"/>
<path d="M1.62951 7.65461C1.56427 7.72613 1.52121 7.81506 1.50558 7.91059C1.48995 8.00612 1.50241 8.10414 1.54146 8.19271C1.58051 8.28129 1.64446 8.35661 1.72553 8.40951C1.8066 8.46241 1.9013 8.49061 1.9981 8.49068H9.98921C10.086 8.49072 10.1807 8.46263 10.2618 8.40983C10.343 8.35703 10.407 8.28179 10.4461 8.19327C10.4853 8.10475 10.4979 8.00676 10.4824 7.91122C10.4669 7.81568 10.4239 7.72671 10.3588 7.65511C9.69454 6.97038 8.99032 6.24269 8.99032 3.99569C8.99032 3.20092 8.6746 2.43871 8.11262 1.87673C7.55063 1.31474 6.78842 0.999023 5.99365 0.999023C5.19889 0.999023 4.43668 1.31474 3.87469 1.87673C3.31271 2.43871 2.99699 3.20092 2.99699 3.99569C2.99699 6.24269 2.29228 6.97038 1.62951 7.65461Z" stroke="white" stroke-width="0.998888" stroke-linecap="round" stroke-linejoin="round"/>
</g>
<defs>
<clipPath id="clip0_118_13404">
<rect width="11.9867" height="11.9867" fill="white"/>
</clipPath>
</defs>
</svg>
