<svg width="20" height="20" viewBox="0 0 20 20" fill="none" xmlns="http://www.w3.org/2000/svg">
<g clip-path="url(#clip0_439_13803)">
<path d="M9.17876 2.34426C9.21445 2.15313 9.31587 1.98051 9.46545 1.85629C9.61502 1.73206 9.80333 1.66406 9.99776 1.66406C10.1922 1.66406 10.3805 1.73206 10.5301 1.85629C10.6797 1.98051 10.7811 2.15313 10.8168 2.34426L11.6924 6.97502C11.7546 7.30425 11.9146 7.60708 12.1515 7.84399C12.3884 8.08091 12.6913 8.2409 13.0205 8.30309L17.6513 9.17876C17.8424 9.21445 18.015 9.31587 18.1392 9.46545C18.2635 9.61502 18.3315 9.80333 18.3315 9.99776C18.3315 10.1922 18.2635 10.3805 18.1392 10.5301C18.015 10.6797 17.8424 10.7811 17.6513 10.8168L13.0205 11.6924C12.6913 11.7546 12.3884 11.9146 12.1515 12.1515C11.9146 12.3884 11.7546 12.6913 11.6924 13.0205L10.8168 17.6513C10.7811 17.8424 10.6797 18.015 10.5301 18.1392C10.3805 18.2635 10.1922 18.3315 9.99776 18.3315C9.80333 18.3315 9.61502 18.2635 9.46545 18.1392C9.31587 18.015 9.21445 17.8424 9.17876 17.6513L8.30309 13.0205C8.2409 12.6913 8.08091 12.3884 7.84399 12.1515C7.60708 11.9146 7.30425 11.7546 6.97502 11.6924L2.34426 10.8168C2.15313 10.7811 1.98051 10.6797 1.85629 10.5301C1.73206 10.3805 1.66406 10.1922 1.66406 9.99776C1.66406 9.80333 1.73206 9.61502 1.85629 9.46545C1.98051 9.31587 2.15313 9.21445 2.34426 9.17876L6.97502 8.30309C7.30425 8.2409 7.60708 8.08091 7.84399 7.84399C8.08091 7.60708 8.2409 7.30425 8.30309 6.97502L9.17876 2.34426Z" stroke="#9810FA" stroke-width="1.66634" stroke-linecap="round" stroke-linejoin="round"/>
<path d="M16.6641 1.66602V4.9987" stroke="#9810FA" stroke-width="1.66634" stroke-linecap="round" stroke-linejoin="round"/>
<path d="M18.3288 3.33301H14.9961" stroke="#9810FA" stroke-width="1.66634" stroke-linecap="round" stroke-linejoin="round"/>
<path d="M3.33431 18.3298C4.2546 18.3298 5.00065 17.5837 5.00065 16.6634C5.00065 15.7431 4.2546 14.9971 3.33431 14.9971C2.41401 14.9971 1.66797 15.7431 1.66797 16.6634C1.66797 17.5837 2.41401 18.3298 3.33431 18.3298Z" stroke="#9810FA" stroke-width="1.66634" stroke-linecap="round" stroke-linejoin="round"/>
</g>
<defs>
<clipPath id="clip0_439_13803">
<rect width="19.9961" height="19.9961" fill="white"/>
</clipPath>
</defs>
</svg>
