<svg width="14" height="14" viewBox="0 0 14 14" fill="none" xmlns="http://www.w3.org/2000/svg">
<path d="M6.72331 1.33877C6.74888 1.28712 6.78837 1.24365 6.83733 1.21325C6.88629 1.18285 6.94277 1.16675 7.0004 1.16675C7.05803 1.16675 7.11451 1.18285 7.16347 1.21325C7.21243 1.24365 7.25192 1.28712 7.27748 1.33877L8.62498 4.06819C8.71375 4.24783 8.84479 4.40326 9.00685 4.52112C9.1689 4.63898 9.35714 4.71575 9.5554 4.74485L12.5689 5.18585C12.626 5.19413 12.6796 5.21821 12.7238 5.25539C12.7679 5.29256 12.8007 5.34134 12.8186 5.39621C12.8364 5.45107 12.8386 5.50984 12.8247 5.56586C12.8109 5.62187 12.7817 5.67291 12.7404 5.71319L10.5611 7.83535C10.4173 7.97541 10.3098 8.1483 10.2477 8.33914C10.1856 8.52997 10.1708 8.73304 10.2046 8.93085L10.7191 11.9292C10.7292 11.9863 10.7231 12.045 10.7014 12.0988C10.6796 12.1525 10.6433 12.199 10.5964 12.2331C10.5495 12.2672 10.494 12.2874 10.4362 12.2914C10.3783 12.2954 10.3206 12.2831 10.2694 12.2559L7.57557 10.8395C7.39807 10.7463 7.20059 10.6976 7.00011 10.6976C6.79963 10.6976 6.60215 10.7463 6.42465 10.8395L3.7314 12.2559C3.68026 12.2829 3.62255 12.2951 3.56483 12.291C3.50711 12.2869 3.4517 12.2667 3.4049 12.2326C3.35811 12.1986 3.3218 12.1521 3.30011 12.0985C3.27843 12.0448 3.27223 11.9862 3.28223 11.9292L3.79615 8.93144C3.8301 8.73353 3.81539 8.53033 3.7533 8.33938C3.6912 8.14842 3.58359 7.97544 3.43973 7.83535L1.2604 5.71377C1.21875 5.67354 1.18923 5.62242 1.17521 5.56623C1.16119 5.51004 1.16324 5.45105 1.18111 5.39596C1.19899 5.34088 1.23197 5.29193 1.27631 5.25468C1.32065 5.21743 1.37456 5.19338 1.4319 5.18527L4.44482 4.74485C4.6433 4.71598 4.83179 4.6393 4.99407 4.52143C5.15635 4.40355 5.28756 4.24801 5.3764 4.06819L6.72331 1.33877Z" fill="#F4C430" stroke="#F4C430" stroke-width="1.16667" stroke-linecap="round" stroke-linejoin="round"/>
</svg>
