<svg width="24" height="24" viewBox="0 0 24 24" fill="none" xmlns="http://www.w3.org/2000/svg">
<path d="M11.9965 21.9925C9.34528 21.9925 6.80262 20.9393 4.92791 19.0646C3.0532 17.1899 2 14.6473 2 11.996C2 9.34479 3.0532 6.80213 4.92791 4.92742C6.80262 3.05271 9.34528 1.99951 11.9965 1.99951C14.6478 1.99951 17.1904 2.94739 19.0651 4.63463C20.9398 6.32187 21.993 8.61026 21.993 10.9964C21.993 12.322 21.4664 13.5933 20.5291 14.5307C19.5917 15.468 18.3204 15.9946 16.9948 15.9946H14.7456C14.4207 15.9946 14.1022 16.0851 13.8259 16.2559C13.5495 16.4267 13.3261 16.6711 13.1809 16.9617C13.0356 17.2523 12.9741 17.5776 13.0032 17.9011C13.0324 18.2247 13.1511 18.5338 13.346 18.7937L13.6459 19.1935C13.8409 19.4534 13.9596 19.7625 13.9888 20.0861C14.0179 20.4096 13.9564 20.7349 13.8111 21.0255C13.6658 21.3161 13.4425 21.5605 13.1661 21.7313C12.8898 21.9021 12.5713 21.9925 12.2464 21.9925H11.9965Z" stroke="#9810FA" stroke-width="1.9993" stroke-linecap="round" stroke-linejoin="round"/>
<path d="M13.4961 6.99805C13.7722 6.99805 13.9961 6.77419 13.9961 6.49805C13.9961 6.2219 13.7722 5.99805 13.4961 5.99805C13.22 5.99805 12.9961 6.2219 12.9961 6.49805C12.9961 6.77419 13.22 6.99805 13.4961 6.99805Z" fill="#9810FA" stroke="#9810FA" stroke-width="1.9993" stroke-linecap="round" stroke-linejoin="round"/>
<path d="M17.4922 10.9966C17.7683 10.9966 17.9922 10.7727 17.9922 10.4966C17.9922 10.2204 17.7683 9.99658 17.4922 9.99658C17.216 9.99658 16.9922 10.2204 16.9922 10.4966C16.9922 10.7727 17.216 10.9966 17.4922 10.9966Z" fill="#9810FA" stroke="#9810FA" stroke-width="1.9993" stroke-linecap="round" stroke-linejoin="round"/>
<path d="M6.49609 12.9956C6.77224 12.9956 6.99609 12.7717 6.99609 12.4956C6.99609 12.2195 6.77224 11.9956 6.49609 11.9956C6.21995 11.9956 5.99609 12.2195 5.99609 12.4956C5.99609 12.7717 6.21995 12.9956 6.49609 12.9956Z" fill="#9810FA" stroke="#9810FA" stroke-width="1.9993" stroke-linecap="round" stroke-linejoin="round"/>
<path d="M8.49609 7.99756C8.77224 7.99756 8.99609 7.7737 8.99609 7.49756C8.99609 7.22142 8.77224 6.99756 8.49609 6.99756C8.21995 6.99756 7.99609 7.22142 7.99609 7.49756C7.99609 7.7737 8.21995 7.99756 8.49609 7.99756Z" fill="#9810FA" stroke="#9810FA" stroke-width="1.9993" stroke-linecap="round" stroke-linejoin="round"/>
</svg>
