<svg width="20" height="20" viewBox="0 0 20 20" fill="none" xmlns="http://www.w3.org/2000/svg">
<path d="M9.60249 1.91214C9.639 1.83837 9.6954 1.77628 9.76533 1.73286C9.83526 1.68945 9.91593 1.66644 9.99824 1.66644C10.0806 1.66644 10.1612 1.68945 10.2312 1.73286C10.3011 1.77628 10.3575 1.83837 10.394 1.91214L12.3186 5.81054C12.4454 6.06713 12.6326 6.28912 12.864 6.45746C13.0955 6.6258 13.3644 6.73546 13.6475 6.77702L17.9517 7.4069C18.0332 7.41871 18.1099 7.45312 18.1729 7.50621C18.2359 7.55931 18.2828 7.62898 18.3083 7.70735C18.3338 7.78571 18.3368 7.86965 18.3171 7.94966C18.2974 8.02966 18.2556 8.10256 18.1966 8.16008L15.0839 11.1912C14.8786 11.3912 14.725 11.6381 14.6364 11.9107C14.5477 12.1833 14.5266 12.4733 14.5748 12.7559L15.3097 17.0383C15.3241 17.1199 15.3153 17.2038 15.2843 17.2805C15.2533 17.3573 15.2013 17.4238 15.1344 17.4724C15.0674 17.5211 14.9881 17.5499 14.9055 17.5557C14.8229 17.5614 14.7404 17.5438 14.6673 17.5049L10.8197 15.482C10.5662 15.3489 10.2842 15.2793 9.99783 15.2793C9.71148 15.2793 9.42942 15.3489 9.1759 15.482L5.32916 17.5049C5.25611 17.5436 5.17368 17.561 5.09124 17.5551C5.00881 17.5493 4.92967 17.5204 4.86283 17.4718C4.79599 17.4232 4.74413 17.3568 4.71316 17.2802C4.68218 17.2035 4.67333 17.1198 4.68761 17.0383L5.42164 12.7567C5.47012 12.474 5.44912 12.1838 5.36043 11.9111C5.27174 11.6383 5.11804 11.3912 4.91257 11.1912L1.79985 8.16092C1.74035 8.10346 1.69819 8.03044 1.67817 7.95019C1.65815 7.86993 1.66107 7.78567 1.6866 7.707C1.71213 7.62832 1.75924 7.5584 1.82257 7.5052C1.8859 7.45199 1.9629 7.41764 2.0448 7.40607L6.34812 6.77702C6.63161 6.73578 6.90084 6.62627 7.13262 6.45791C7.36441 6.28955 7.55181 6.06739 7.6787 5.81054L9.60249 1.91214Z" fill="#D4AF37" stroke="#D4AF37" stroke-width="1.66634" stroke-linecap="round" stroke-linejoin="round"/>
</svg>
