<svg width="12" height="12" viewBox="0 0 12 12" fill="none" xmlns="http://www.w3.org/2000/svg">
<g clip-path="url(#clip0_36_23068)">
<path d="M5.99346 10.9878C4.66886 10.9878 3.3985 10.4616 2.46186 9.52493C1.52522 8.58829 0.999023 7.31794 0.999023 5.99333C0.999023 4.66872 1.52522 3.39837 2.46186 2.46173C3.3985 1.52509 4.66886 0.99889 5.99346 0.99889C7.31807 0.99889 8.58843 1.47247 9.52507 2.31544C10.4617 3.15842 10.9879 4.30174 10.9879 5.49389C10.9879 6.15619 10.7248 6.79137 10.2565 7.25969C9.78817 7.72801 9.15299 7.99111 8.49068 7.99111H7.36694C7.20462 7.99111 7.04551 8.03631 6.90743 8.12164C6.76936 8.20698 6.65777 8.32908 6.58518 8.47426C6.51259 8.61944 6.48186 8.78197 6.49644 8.94363C6.51102 9.10529 6.57032 9.2597 6.66771 9.38955L6.81755 9.58933C6.91494 9.71918 6.97424 9.87359 6.98882 10.0353C7.0034 10.1969 6.97267 10.3594 6.90008 10.5046C6.82749 10.6498 6.7159 10.7719 6.57783 10.8572C6.43975 10.9426 6.28064 10.9878 6.11833 10.9878H5.99346Z" stroke="#1A1A1A" stroke-width="0.998888" stroke-linecap="round" stroke-linejoin="round"/>
<path d="M6.74289 3.49611C6.8808 3.49611 6.99261 3.38431 6.99261 3.24639C6.99261 3.10847 6.8808 2.99667 6.74289 2.99667C6.60497 2.99667 6.49316 3.10847 6.49316 3.24639C6.49316 3.38431 6.60497 3.49611 6.74289 3.49611Z" fill="#1A1A1A" stroke="#1A1A1A" stroke-width="0.998888" stroke-linecap="round" stroke-linejoin="round"/>
<path d="M8.73996 5.49389C8.87787 5.49389 8.98968 5.38208 8.98968 5.24416C8.98968 5.10625 8.87787 4.99444 8.73996 4.99444C8.60204 4.99444 8.49023 5.10625 8.49023 5.24416C8.49023 5.38208 8.60204 5.49389 8.73996 5.49389Z" fill="#1A1A1A" stroke="#1A1A1A" stroke-width="0.998888" stroke-linecap="round" stroke-linejoin="round"/>
<path d="M3.24679 6.49277C3.38471 6.49277 3.49651 6.38097 3.49651 6.24305C3.49651 6.10513 3.38471 5.99333 3.24679 5.99333C3.10887 5.99333 2.99707 6.10513 2.99707 6.24305C2.99707 6.38097 3.10887 6.49277 3.24679 6.49277Z" fill="#1A1A1A" stroke="#1A1A1A" stroke-width="0.998888" stroke-linecap="round" stroke-linejoin="round"/>
<path d="M4.24484 3.99555C4.38276 3.99555 4.49456 3.88375 4.49456 3.74583C4.49456 3.60791 4.38276 3.49611 4.24484 3.49611C4.10692 3.49611 3.99512 3.60791 3.99512 3.74583C3.99512 3.88375 4.10692 3.99555 4.24484 3.99555Z" fill="#1A1A1A" stroke="#1A1A1A" stroke-width="0.998888" stroke-linecap="round" stroke-linejoin="round"/>
</g>
<defs>
<clipPath id="clip0_36_23068">
<rect width="11.9867" height="11.9867" fill="white"/>
</clipPath>
</defs>
</svg>
