<svg width="20" height="20" viewBox="0 0 20 20" fill="none" xmlns="http://www.w3.org/2000/svg">
<g clip-path="url(#clip0_452_20697)">
<path d="M19.8283 0.171621C19.5995 -0.0572069 19.2284 -0.0572069 18.9996 0.171621L17.293 1.87826C17.1868 1.82759 17.0759 1.78768 16.9618 1.75912L11.6582 0.448847C11.0627 0.29998 10.423 0.477128 9.98888 0.911229L0.514013 10.3705C-0.171338 11.0559 -0.171338 12.1711 0.514013 12.8566L7.14341 19.4859C7.8288 20.1713 8.94404 20.1713 9.62946 19.4859L19.0887 10.011C19.5228 9.57691 19.7 8.93723 19.5511 8.34164L18.2409 3.03814C18.2123 2.92404 18.1724 2.81309 18.1217 2.70693L19.8284 1.00029C20.0571 0.771463 20.0571 0.400448 19.8283 0.171621ZM18.4141 8.62594C18.4637 8.82445 18.4047 9.03766 18.26 9.18238L8.80072 18.6572C8.57224 18.8857 8.20048 18.8857 7.97201 18.6572L1.34264 12.0278C1.11417 11.7994 1.11417 11.4276 1.34264 11.1991L10.8175 1.7399C10.9284 1.62908 11.0794 1.56849 11.2332 1.56849C11.2802 1.56849 11.3275 1.57416 11.374 1.58576L16.3556 2.81556L14.9445 4.22669C14.2912 3.91552 13.4842 4.02966 12.9441 4.56974C12.2587 5.25517 12.2587 6.37036 12.9441 7.05579C13.2868 7.39848 13.737 7.56985 14.1871 7.56985C14.6372 7.56985 15.0874 7.39852 15.4301 7.05579C15.9703 6.51563 16.0844 5.70868 15.7731 5.05536L17.1843 3.64423L18.4141 8.62594ZM14.6014 6.22716C14.373 6.45559 14.0013 6.45563 13.7728 6.22716C13.5443 5.99872 13.5443 5.62692 13.7728 5.39849C13.8271 5.34404 13.8917 5.30088 13.9628 5.27147C14.034 5.24207 14.1102 5.22701 14.1871 5.22716C14.3371 5.22716 14.4872 5.28427 14.6014 5.39845C14.8298 5.62688 14.8299 5.99872 14.6014 6.22716Z" fill="#9A8F84"/>
<path d="M9.62955 7.05506C8.94416 6.36967 7.82893 6.36967 7.1435 7.05506C6.45815 7.74045 6.45815 8.85568 7.1435 9.54111C7.82889 10.2265 8.94416 10.2265 9.62955 9.54111C10.315 8.85568 10.315 7.74049 9.62955 7.05506ZM8.80092 8.7124C8.57244 8.94088 8.20069 8.94088 7.97225 8.7124C7.74381 8.48393 7.74373 8.11217 7.97221 7.88373C8.20069 7.65529 8.57241 7.65525 8.80092 7.88373C9.02936 8.11217 9.02936 8.48393 8.80092 8.7124ZM10.4582 12.8558C9.77123 12.1688 8.65932 12.1687 7.97221 12.8558C7.28678 13.5412 7.28678 14.6564 7.97221 15.3418C8.65924 16.0288 9.77116 16.0289 10.4582 15.3418C11.1437 14.6564 11.1437 13.5412 10.4582 12.8558ZM9.62955 14.5131C9.40061 14.7421 9.02987 14.7422 8.80088 14.5131C8.57244 14.2847 8.57244 13.9129 8.80088 13.6845C9.02987 13.4555 9.40057 13.4554 9.62955 13.6845C9.85799 13.9129 9.85799 14.2846 9.62955 14.5131ZM13.1123 10.7194C13.0766 10.3978 12.7868 10.166 12.4652 10.2017L5.00717 11.0304C4.68553 11.0661 4.45373 11.3558 4.48948 11.6775C4.5228 11.9771 4.77647 12.1988 5.07116 12.1988C5.09276 12.1988 5.11463 12.1976 5.13659 12.1952L12.5947 11.3665C12.9163 11.3307 13.1481 11.041 13.1123 10.7194Z" fill="#9A8F84"/>
</g>
<defs>
<clipPath id="clip0_452_20697">
<rect width="20" height="20" fill="white"/>
</clipPath>
</defs>
</svg>
