<svg width="24" height="24" viewBox="0 0 24 24" fill="none" xmlns="http://www.w3.org/2000/svg">
<path d="M1.99902 8.99665C2.7944 8.99665 3.55719 9.31261 4.1196 9.87503C4.68202 10.4374 4.99798 11.2002 4.99798 11.9956C4.99798 12.791 4.68202 13.5538 4.1196 14.1162C3.55719 14.6786 2.7944 14.9946 1.99902 14.9946V16.9939C1.99902 17.5241 2.20966 18.0326 2.58461 18.4076C2.95955 18.7825 3.46808 18.9932 3.99833 18.9932H19.9928C20.523 18.9932 21.0315 18.7825 21.4065 18.4076C21.7814 18.0326 21.9921 17.5241 21.9921 16.9939V14.9946C21.1967 14.9946 20.4339 14.6786 19.8715 14.1162C19.3091 13.5538 18.9931 12.791 18.9931 11.9956C18.9931 11.2002 19.3091 10.4374 19.8715 9.87503C20.4339 9.31261 21.1967 8.99665 21.9921 8.99665V6.99735C21.9921 6.4671 21.7814 5.95857 21.4065 5.58363C21.0315 5.20869 20.523 4.99805 19.9928 4.99805H3.99833C3.46808 4.99805 2.95955 5.20869 2.58461 5.58363C2.20966 5.95857 1.99902 6.4671 1.99902 6.99735V8.99665Z" stroke="#155DFC" stroke-width="1.9993" stroke-linecap="round" stroke-linejoin="round"/>
<path d="M12.9951 4.99805V6.99805" stroke="#155DFC" stroke-width="1.9993" stroke-linecap="round" stroke-linejoin="round"/>
<path d="M12.9951 16.9941V18.9941" stroke="#155DFC" stroke-width="1.9993" stroke-linecap="round" stroke-linejoin="round"/>
<path d="M12.9951 10.9961V12.9961" stroke="#155DFC" stroke-width="1.9993" stroke-linecap="round" stroke-linejoin="round"/>
</svg>
