<svg width="16" height="16" viewBox="0 0 16 16" fill="none" xmlns="http://www.w3.org/2000/svg">
<g clip-path="url(#clip0_125_29283)">
<path d="M1.33594 6.33332C1.33595 5.59145 1.561 4.86704 1.98136 4.25576C2.40172 3.64448 2.99762 3.17509 3.69034 2.90959C4.38307 2.64408 5.14004 2.59495 5.86128 2.76868C6.58252 2.94242 7.23409 3.33084 7.72994 3.88265C7.76486 3.92 7.80708 3.94977 7.85399 3.97012C7.90089 3.99047 7.95147 4.00098 8.0026 4.00098C8.05373 4.00098 8.10432 3.99047 8.15122 3.97012C8.19812 3.94977 8.24035 3.92 8.27527 3.88265C8.76956 3.32725 9.42128 2.93556 10.1437 2.75972C10.8661 2.58388 11.6249 2.63222 12.3192 2.89831C13.0134 3.1644 13.6102 3.63562 14.03 4.24925C14.4498 4.86289 14.6728 5.58983 14.6693 6.33332C14.6693 7.85999 13.6693 8.99999 12.6693 9.99999L9.00794 13.542C8.88372 13.6847 8.73056 13.7993 8.55863 13.8782C8.38671 13.9571 8.19997 13.9986 8.0108 13.9997C7.82163 14.0009 7.63437 13.9619 7.46146 13.8851C7.28855 13.8084 7.13396 13.6957 7.00794 13.5547L3.33594 9.99999C2.33594 8.99999 1.33594 7.86665 1.33594 6.33332Z" stroke="#1A1A1A" stroke-width="1.33333" stroke-linecap="round" stroke-linejoin="round"/>
</g>
<defs>
<clipPath id="clip0_125_29283">
<rect width="16" height="16" fill="white"/>
</clipPath>
</defs>
</svg>
