<svg width="16" height="16" viewBox="0 0 16 16" fill="none" xmlns="http://www.w3.org/2000/svg">
<g clip-path="url(#clip0_124_26249)">
<path d="M9.32314 11.9867V3.99555C9.32314 3.64232 9.18282 3.30356 8.93305 3.05379C8.68328 2.80402 8.34451 2.6637 7.99129 2.6637H2.66388C2.31065 2.6637 1.97189 2.80402 1.72212 3.05379C1.47235 3.30356 1.33203 3.64232 1.33203 3.99555V11.3207C1.33203 11.4973 1.40219 11.6667 1.52708 11.7916C1.65196 11.9165 1.82134 11.9867 1.99796 11.9867H3.32981" stroke="#8B6F47" stroke-width="1.33185" stroke-linecap="round" stroke-linejoin="round"/>
<path d="M9.98969 11.9867H5.99414" stroke="#8B6F47" stroke-width="1.33185" stroke-linecap="round" stroke-linejoin="round"/>
<path d="M12.6519 11.9867H13.9837C14.1604 11.9867 14.3297 11.9165 14.4546 11.7916C14.5795 11.6667 14.6497 11.4973 14.6497 11.3207V8.89011C14.6494 8.73898 14.5977 8.59244 14.5032 8.47457L12.1857 5.57779C12.1235 5.4998 12.0444 5.4368 11.9545 5.39346C11.8646 5.35012 11.7661 5.32755 11.6663 5.3274H9.32227" stroke="#8B6F47" stroke-width="1.33185" stroke-linecap="round" stroke-linejoin="round"/>
<path d="M11.3201 13.3185C12.0557 13.3185 12.652 12.7222 12.652 11.9867C12.652 11.2511 12.0557 10.6548 11.3201 10.6548C10.5846 10.6548 9.98828 11.2511 9.98828 11.9867C9.98828 12.7222 10.5846 13.3185 11.3201 13.3185Z" stroke="#8B6F47" stroke-width="1.33185" stroke-linecap="round" stroke-linejoin="round"/>
<path d="M4.66193 13.3185C5.39749 13.3185 5.99378 12.7222 5.99378 11.9867C5.99378 11.2511 5.39749 10.6548 4.66193 10.6548C3.92637 10.6548 3.33008 11.2511 3.33008 11.9867C3.33008 12.7222 3.92637 13.3185 4.66193 13.3185Z" stroke="#8B6F47" stroke-width="1.33185" stroke-linecap="round" stroke-linejoin="round"/>
</g>
<defs>
<clipPath id="clip0_124_26249">
<rect width="15.9822" height="15.9822" fill="white"/>
</clipPath>
</defs>
</svg>
