<svg width="16" height="16" viewBox="0 0 16 16" fill="none" xmlns="http://www.w3.org/2000/svg">
<g clip-path="url(#clip0_29_7104)">
<path d="M13.5872 2.30666L10.6672 1.33333C10.6672 2.04057 10.3862 2.71885 9.88613 3.21895C9.38604 3.71904 8.70776 3.99999 8.00052 3.99999C7.29327 3.99999 6.61499 3.71904 6.1149 3.21895C5.6148 2.71885 5.33385 2.04057 5.33385 1.33333L2.41385 2.30666C2.1121 2.40719 1.85623 2.61227 1.69242 2.88489C1.5286 3.15751 1.46763 3.4797 1.52052 3.79333L1.90718 6.10666C1.93257 6.26327 2.01297 6.40569 2.13394 6.50834C2.25492 6.61098 2.40853 6.66712 2.56718 6.66666H4.00052V13.3333C4.00052 14.0667 4.60052 14.6667 5.33385 14.6667H10.6672C11.0208 14.6667 11.3599 14.5262 11.61 14.2761C11.86 14.0261 12.0005 13.6869 12.0005 13.3333V6.66666H13.4338C13.5925 6.66712 13.7461 6.61098 13.8671 6.50834C13.9881 6.40569 14.0685 6.26327 14.0938 6.10666L14.4805 3.79333C14.5334 3.4797 14.4724 3.15751 14.3086 2.88489C14.1448 2.61227 13.8889 2.40719 13.5872 2.30666Z" stroke="#2C2C2C" stroke-width="1.33333" stroke-linecap="round" stroke-linejoin="round"/>
</g>
<defs>
<clipPath id="clip0_29_7104">
<rect width="16" height="16" fill="white"/>
</clipPath>
</defs>
</svg>
