<svg width="16" height="16" viewBox="0 0 16 16" fill="none" xmlns="http://www.w3.org/2000/svg">
<path d="M7.70893 2.17732C7.73771 2.12506 7.77998 2.08148 7.83134 2.05113C7.88271 2.02077 7.94127 2.00476 8.00093 2.00476C8.06059 2.00476 8.11916 2.02077 8.17052 2.05113C8.22188 2.08148 8.26416 2.12506 8.29293 2.17732L10.2609 5.91332C10.3079 5.99983 10.3734 6.07488 10.4527 6.13307C10.5321 6.19126 10.6234 6.23116 10.72 6.2499C10.8166 6.26863 10.9162 6.26575 11.0116 6.24144C11.1069 6.21714 11.1957 6.17202 11.2716 6.10932L14.1229 3.66666C14.1777 3.62214 14.2451 3.59614 14.3156 3.59239C14.386 3.58865 14.4559 3.60735 14.515 3.64582C14.5741 3.68429 14.6196 3.74053 14.6447 3.80645C14.6699 3.87237 14.6734 3.94457 14.6549 4.01266L12.7656 10.8433C12.727 10.9831 12.6439 11.1065 12.5289 11.1948C12.4139 11.2831 12.2733 11.3315 12.1283 11.3327H3.87427C3.72916 11.3316 3.58834 11.2833 3.47319 11.195C3.35805 11.1067 3.27486 10.9832 3.23627 10.8433L1.3476 4.01332C1.3291 3.94524 1.33268 3.87304 1.35783 3.80712C1.38297 3.7412 1.42839 3.68495 1.48753 3.64649C1.54668 3.60802 1.61651 3.58931 1.68696 3.59306C1.75742 3.5968 1.82487 3.6228 1.8796 3.66732L4.73027 6.10999C4.80613 6.17268 4.89494 6.2178 4.99031 6.24211C5.08568 6.26641 5.18525 6.2693 5.28187 6.25056C5.37849 6.23183 5.46976 6.19193 5.54913 6.13374C5.6285 6.07554 5.694 6.0005 5.74093 5.91399L7.70893 2.17732Z" stroke="#2C2C2C" stroke-width="1.33333" stroke-linecap="round" stroke-linejoin="round"/>
<path d="M3.33398 14H12.6673" stroke="#2C2C2C" stroke-width="1.33333" stroke-linecap="round" stroke-linejoin="round"/>
</svg>
