<svg width="16" height="16" viewBox="0 0 16 16" fill="none" xmlns="http://www.w3.org/2000/svg">
<g clip-path="url(#clip0_124_26128)">
<path d="M9.21126 11.033C9.34879 11.0962 9.50374 11.1106 9.65057 11.074C9.7974 11.0373 9.92735 10.9517 10.019 10.8313L10.2554 10.5216C10.3795 10.3562 10.5404 10.222 10.7253 10.1295C10.9102 10.037 11.1141 9.98888 11.3209 9.98888H13.3187C13.6719 9.98888 14.0107 10.1292 14.2604 10.379C14.5102 10.6287 14.6505 10.9675 14.6505 11.3207V13.3185C14.6505 13.6717 14.5102 14.0105 14.2604 14.2603C14.0107 14.51 13.6719 14.6504 13.3187 14.6504C10.1396 14.6504 7.09078 13.3875 4.84284 11.1395C2.59491 8.89161 1.33203 5.84276 1.33203 2.6637C1.33203 2.31047 1.47235 1.97171 1.72212 1.72194C1.97189 1.47217 2.31065 1.33185 2.66388 1.33185H4.66166C5.01489 1.33185 5.35365 1.47217 5.60342 1.72194C5.85319 1.97171 5.99351 2.31047 5.99351 2.6637V4.66148C5.99351 4.86824 5.94537 5.07216 5.8529 5.2571C5.76043 5.44203 5.62618 5.6029 5.46077 5.72696L5.14912 5.9607C5.02686 6.05404 4.94069 6.18683 4.90525 6.33651C4.8698 6.48619 4.88726 6.64352 4.95467 6.78178C5.86477 8.6303 7.3616 10.1253 9.21126 11.033Z" stroke="#6B6560" stroke-width="1.33185" stroke-linecap="round" stroke-linejoin="round"/>
</g>
<defs>
<clipPath id="clip0_124_26128">
<rect width="15.9822" height="15.9822" fill="white"/>
</clipPath>
</defs>
</svg>
