<svg width="20" height="20" viewBox="0 0 20 20" fill="none" xmlns="http://www.w3.org/2000/svg">
<g clip-path="url(#clip0_126_29762)">
<path d="M11.5245 13.804C11.6965 13.883 11.8904 13.9011 12.0741 13.8552C12.2578 13.8093 12.4204 13.7022 12.5351 13.5515L12.8309 13.1641C12.9861 12.9572 13.1873 12.7892 13.4187 12.6735C13.6501 12.5578 13.9052 12.4976 14.1639 12.4976H16.6634C17.1054 12.4976 17.5292 12.6731 17.8417 12.9856C18.1542 13.2981 18.3298 13.722 18.3298 14.1639V16.6634C18.3298 17.1054 18.1542 17.5292 17.8417 17.8417C17.5292 18.1542 17.1054 18.3298 16.6634 18.3298C12.686 18.3298 8.87142 16.7497 6.05892 13.9372C3.24643 11.1247 1.66638 7.31016 1.66638 3.33269C1.66638 2.89075 1.84194 2.46691 2.15444 2.15441C2.46694 1.84191 2.89078 1.66635 3.33272 1.66635H5.83223C6.27417 1.66635 6.69801 1.84191 7.01051 2.15441C7.32301 2.46691 7.49857 2.89075 7.49857 3.33269V5.8322C7.49857 6.09089 7.43834 6.34603 7.32265 6.57741C7.20696 6.80879 7.03899 7.01006 6.83204 7.16528L6.44211 7.45772C6.28916 7.57451 6.18135 7.74065 6.137 7.92792C6.09265 8.11519 6.1145 8.31203 6.19883 8.48502C7.33751 10.7978 9.21026 12.6682 11.5245 13.804Z" stroke="#6B6560" stroke-width="1.66634" stroke-linecap="round" stroke-linejoin="round"/>
</g>
<defs>
<clipPath id="clip0_126_29762">
<rect width="19.9961" height="19.9961" fill="white"/>
</clipPath>
</defs>
</svg>
