<svg width="20" height="20" viewBox="0 0 20 20" fill="none" xmlns="http://www.w3.org/2000/svg">
<g clip-path="url(#clip0_126_29776)">
<path d="M1.71797 10.288C1.64853 10.1009 1.64853 9.89516 1.71797 9.7081C2.39426 8.0683 3.54221 6.66623 5.0163 5.67964C6.49039 4.69305 8.22424 4.16637 9.99802 4.16637C11.7718 4.16637 13.5056 4.69305 14.9797 5.67964C16.4538 6.66623 17.6018 8.0683 18.2781 9.7081C18.3475 9.89516 18.3475 10.1009 18.2781 10.288C17.6018 11.9278 16.4538 13.3299 14.9797 14.3165C13.5056 15.303 11.7718 15.8297 9.99802 15.8297C8.22424 15.8297 6.49039 15.303 5.0163 14.3165C3.54221 13.3299 2.39426 11.9278 1.71797 10.288Z" stroke="#6B6560" stroke-width="1.66634" stroke-linecap="round" stroke-linejoin="round"/>
<path d="M9.99805 12.4976C11.3785 12.4976 12.4976 11.3785 12.4976 9.99805C12.4976 8.6176 11.3785 7.49854 9.99805 7.49854C8.6176 7.49854 7.49854 8.6176 7.49854 9.99805C7.49854 11.3785 8.6176 12.4976 9.99805 12.4976Z" stroke="#6B6560" stroke-width="1.66634" stroke-linecap="round" stroke-linejoin="round"/>
</g>
<defs>
<clipPath id="clip0_126_29776">
<rect width="19.9961" height="19.9961" fill="white"/>
</clipPath>
</defs>
</svg>
