<svg width="12" height="12" viewBox="0 0 12 12" fill="none" xmlns="http://www.w3.org/2000/svg">
<g clip-path="url(#clip0_118_13356)">
<path d="M7.99067 4.99414C7.99067 5.52398 7.78019 6.03213 7.40553 6.40678C7.03088 6.78144 6.52274 6.99192 5.99289 6.99192C5.46305 6.99192 4.95491 6.78144 4.58025 6.40678C4.2056 6.03213 3.99512 5.52398 3.99512 4.99414" stroke="white" stroke-width="0.998888" stroke-linecap="round" stroke-linejoin="round"/>
<path d="M1.5498 3.01367H10.4369" stroke="white" stroke-width="0.998888" stroke-linecap="round" stroke-linejoin="round"/>
<path d="M1.69782 2.7306C1.56815 2.9035 1.49805 3.1138 1.49805 3.32993V9.98902C1.49805 10.2539 1.60329 10.508 1.79061 10.6953C1.97794 10.8827 2.23201 10.9879 2.49694 10.9879H9.48915C9.75407 10.9879 10.0081 10.8827 10.1955 10.6953C10.3828 10.508 10.488 10.2539 10.488 9.98902V3.32993C10.488 3.1138 10.4179 2.9035 10.2883 2.7306L9.28937 1.39858C9.19633 1.27452 9.07568 1.17383 8.93698 1.10448C8.79828 1.03513 8.64534 0.999023 8.49026 0.999023H3.49582C3.34075 0.999023 3.18781 1.03513 3.04911 1.10448C2.91041 1.17383 2.78976 1.27452 2.69671 1.39858L1.69782 2.7306Z" stroke="white" stroke-width="0.998888" stroke-linecap="round" stroke-linejoin="round"/>
</g>
<defs>
<clipPath id="clip0_118_13356">
<rect width="11.9867" height="11.9867" fill="white"/>
</clipPath>
</defs>
</svg>
