<svg width="20" height="20" viewBox="0 0 20 20" fill="none" xmlns="http://www.w3.org/2000/svg">
<g clip-path="url(#clip0_126_29772)">
<path d="M15.8302 9.16487H4.16585C3.24556 9.16487 2.49951 9.91092 2.49951 10.8312V16.6634C2.49951 17.5837 3.24556 18.3297 4.16585 18.3297H15.8302C16.7505 18.3297 17.4966 17.5837 17.4966 16.6634V10.8312C17.4966 9.91092 16.7505 9.16487 15.8302 9.16487Z" stroke="#6B6560" stroke-width="1.66634" stroke-linecap="round" stroke-linejoin="round"/>
<path d="M5.83215 9.16487V5.83219C5.83215 4.72734 6.27105 3.66773 7.0523 2.88649C7.83355 2.10524 8.89315 1.66634 9.99801 1.66634C11.1029 1.66634 12.1625 2.10524 12.9437 2.88649C13.725 3.66773 14.1639 4.72734 14.1639 5.83219V9.16487" stroke="#6B6560" stroke-width="1.66634" stroke-linecap="round" stroke-linejoin="round"/>
</g>
<defs>
<clipPath id="clip0_126_29772">
<rect width="19.9961" height="19.9961" fill="white"/>
</clipPath>
</defs>
</svg>
