<svg width="16" height="16" viewBox="0 0 16 16" fill="none" xmlns="http://www.w3.org/2000/svg">
<path d="M6.66602 10.6667C6.99935 10.8667 7.46602 11 7.99935 11C8.53268 11 8.99935 10.8667 9.33268 10.6667" stroke="#2C2C2C" stroke-width="1.33333" stroke-linecap="round" stroke-linejoin="round"/>
<path d="M10 8H10.0067" stroke="#2C2C2C" stroke-width="1.33333" stroke-linecap="round" stroke-linejoin="round"/>
<path d="M12.9197 4.542C13.3871 5.2216 13.7093 5.99027 13.8663 6.8C14.0918 6.90918 14.2819 7.07965 14.4149 7.29188C14.5479 7.50411 14.6185 7.74952 14.6185 8C14.6185 8.25048 14.5479 8.49589 14.4149 8.70812C14.2819 8.92035 14.0918 9.09082 13.8663 9.2C13.5785 10.5423 12.8391 11.7454 11.7715 12.6084C10.7038 13.4714 9.3725 13.9421 7.99967 13.9421C6.62685 13.9421 5.29553 13.4714 4.22788 12.6084C3.16023 11.7454 2.42081 10.5423 2.13301 9.2C1.90758 9.09082 1.71746 8.92035 1.58444 8.70812C1.45141 8.49589 1.38086 8.25048 1.38086 8C1.38086 7.74952 1.45141 7.50411 1.58444 7.29188C1.71746 7.07965 1.90758 6.90918 2.13301 6.8C2.40918 5.447 3.1436 4.23068 4.21236 3.35624C5.28111 2.48181 6.61878 2.00279 7.99967 2C9.33301 2 10.333 2.73333 10.333 3.66667C10.333 4.6 9.73301 5.33333 8.99967 5.33333C8.46634 5.33333 7.99967 5.06667 7.99967 4.66667" stroke="#2C2C2C" stroke-width="1.33333" stroke-linecap="round" stroke-linejoin="round"/>
<path d="M6 8H6.00667" stroke="#2C2C2C" stroke-width="1.33333" stroke-linecap="round" stroke-linejoin="round"/>
</svg>
