<svg width="16" height="16" viewBox="0 0 16 16" fill="none" xmlns="http://www.w3.org/2000/svg">
<g clip-path="url(#clip0_29_7112)">
<path d="M13.5872 2.30667L10.6672 1.33334C10.6672 2.04058 10.3862 2.71886 9.88613 3.21895C9.38604 3.71905 8.70776 4 8.00052 4C7.29327 4 6.61499 3.71905 6.1149 3.21895C5.6148 2.71886 5.33385 2.04058 5.33385 1.33334L2.41385 2.30667C2.1121 2.4072 1.85623 2.61228 1.69242 2.8849C1.5286 3.15752 1.46763 3.47971 1.52052 3.79334L1.90718 6.10667C1.93257 6.26328 2.01297 6.4057 2.13394 6.50834C2.25492 6.61099 2.40853 6.66713 2.56718 6.66667H4.00052V13.3333C4.00052 14.0667 4.60052 14.6667 5.33385 14.6667H10.6672C11.0208 14.6667 11.3599 14.5262 11.61 14.2761C11.86 14.0261 12.0005 13.687 12.0005 13.3333V6.66667H13.4338C13.5925 6.66713 13.7461 6.61099 13.8671 6.50834C13.9881 6.4057 14.0685 6.26328 14.0938 6.10667L14.4805 3.79334C14.5334 3.47971 14.4724 3.15752 14.3086 2.8849C14.1448 2.61228 13.8889 2.4072 13.5872 2.30667Z" stroke="#2C2C2C" stroke-width="1.33333" stroke-linecap="round" stroke-linejoin="round"/>
</g>
<defs>
<clipPath id="clip0_29_7112">
<rect width="16" height="16" fill="white"/>
</clipPath>
</defs>
</svg>
