<svg width="16" height="16" viewBox="0 0 16 16" fill="none" xmlns="http://www.w3.org/2000/svg">
<path d="M10.6673 6.66667C10.6673 7.37391 10.3864 8.05219 9.88627 8.55228C9.38617 9.05238 8.7079 9.33333 8.00065 9.33333C7.29341 9.33333 6.61513 9.05238 6.11503 8.55228C5.61494 8.05219 5.33398 7.37391 5.33398 6.66667" stroke="#2C2C2C" stroke-width="1.33333" stroke-linecap="round" stroke-linejoin="round"/>
<path d="M2.06836 4.02267H13.931" stroke="#2C2C2C" stroke-width="1.33333" stroke-linecap="round" stroke-linejoin="round"/>
<path d="M2.26667 3.64467C2.09357 3.87546 2 4.15617 2 4.44467V13.3333C2 13.687 2.14048 14.0261 2.39052 14.2761C2.64057 14.5262 2.97971 14.6667 3.33333 14.6667H12.6667C13.0203 14.6667 13.3594 14.5262 13.6095 14.2761C13.8595 14.0261 14 13.687 14 13.3333V4.44467C14 4.15617 13.9064 3.87546 13.7333 3.64467L12.4 1.86667C12.2758 1.70107 12.1148 1.56667 11.9296 1.4741C11.7445 1.38153 11.5403 1.33333 11.3333 1.33333H4.66667C4.45967 1.33333 4.25552 1.38153 4.07038 1.4741C3.88524 1.56667 3.7242 1.70107 3.6 1.86667L2.26667 3.64467Z" stroke="#2C2C2C" stroke-width="1.33333" stroke-linecap="round" stroke-linejoin="round"/>
</svg>
