<svg width="16" height="16" viewBox="0 0 16 16" fill="none" xmlns="http://www.w3.org/2000/svg">
<path d="M13.3189 8.65704C13.3189 11.9867 10.9881 13.6515 8.21788 14.6171C8.07282 14.6662 7.91524 14.6639 7.77171 14.6104C4.9948 13.6515 2.66406 11.9867 2.66406 8.65704V3.99557C2.66406 3.81895 2.73422 3.64957 2.85911 3.52469C2.98399 3.3998 3.15337 3.32964 3.32999 3.32964C4.66184 3.32964 6.32665 2.53053 7.48536 1.51832C7.62644 1.39779 7.80591 1.33157 7.99147 1.33157C8.17702 1.33157 8.35649 1.39779 8.49757 1.51832C9.66294 2.53719 11.3211 3.32964 12.6529 3.32964C12.8296 3.32964 12.9989 3.3998 13.1238 3.52469C13.2487 3.64957 13.3189 3.81895 13.3189 3.99557V8.65704Z" stroke="#8B6F47" stroke-width="1.33185" stroke-linecap="round" stroke-linejoin="round"/>
</svg>
