<svg width="64" height="64" viewBox="0 0 64 64" fill="none" xmlns="http://www.w3.org/2000/svg">
<path d="M31.9958 58.6581C24.9244 58.6581 18.1426 55.849 13.1424 50.8487C8.14211 45.8485 5.33301 39.0667 5.33301 31.9953C5.33301 24.9239 8.14211 18.1421 13.1424 13.1419C18.1426 8.14163 24.9244 5.33252 31.9958 5.33252C39.0672 5.33252 45.849 7.86071 50.8492 12.3609C55.8495 16.8611 58.6586 22.9647 58.6586 29.329C58.6586 32.8647 57.254 36.2556 54.7539 38.7557C52.2538 41.2559 48.8629 42.6604 45.3272 42.6604H39.328C38.4615 42.6604 37.6121 42.9017 36.875 43.3573C36.1379 43.8128 35.5422 44.4647 35.1547 45.2397C34.7671 46.0147 34.6031 46.8824 34.6809 47.7454C34.7587 48.6084 35.0753 49.4328 35.5953 50.126L36.3951 51.1925C36.9151 51.8857 37.2317 52.71 37.3095 53.5731C37.3873 54.4361 37.2233 55.3037 36.8357 56.0788C36.4482 56.8538 35.8525 57.5056 35.1154 57.9612C34.3783 58.4168 33.5289 58.6581 32.6624 58.6581H31.9958Z" stroke="#99A1AF" stroke-width="5.33255" stroke-linecap="round" stroke-linejoin="round"/>
<path d="M35.9943 18.6638C36.7305 18.6638 37.3274 18.067 37.3274 17.3307C37.3274 16.5944 36.7305 15.9976 35.9943 15.9976C35.258 15.9976 34.6611 16.5944 34.6611 17.3307C34.6611 18.067 35.258 18.6638 35.9943 18.6638Z" fill="#99A1AF" stroke="#99A1AF" stroke-width="5.33255" stroke-linecap="round" stroke-linejoin="round"/>
<path d="M46.6603 29.3289C47.3966 29.3289 47.9934 28.732 47.9934 27.9957C47.9934 27.2595 47.3966 26.6626 46.6603 26.6626C45.924 26.6626 45.3271 27.2595 45.3271 27.9957C45.3271 28.732 45.924 29.3289 46.6603 29.3289Z" fill="#99A1AF" stroke="#99A1AF" stroke-width="5.33255" stroke-linecap="round" stroke-linejoin="round"/>
<path d="M17.3312 34.6614C18.0675 34.6614 18.6643 34.0645 18.6643 33.3283C18.6643 32.592 18.0675 31.9951 17.3312 31.9951C16.5949 31.9951 15.998 32.592 15.998 33.3283C15.998 34.0645 16.5949 34.6614 17.3312 34.6614Z" fill="#99A1AF" stroke="#99A1AF" stroke-width="5.33255" stroke-linecap="round" stroke-linejoin="round"/>
<path d="M22.6632 21.3303C23.3995 21.3303 23.9964 20.7335 23.9964 19.9972C23.9964 19.2609 23.3995 18.6641 22.6632 18.6641C21.9269 18.6641 21.3301 19.2609 21.3301 19.9972C21.3301 20.7335 21.9269 21.3303 22.6632 21.3303Z" fill="#99A1AF" stroke="#99A1AF" stroke-width="5.33255" stroke-linecap="round" stroke-linejoin="round"/>
</svg>
