<svg width="16" height="16" viewBox="0 0 16 16" fill="none" xmlns="http://www.w3.org/2000/svg">
<path d="M10.6673 14V12.6667C10.6673 11.9594 10.3864 11.2811 9.88627 10.781C9.38617 10.281 8.70789 10 8.00065 10H4.00065C3.29341 10 2.61513 10.281 2.11503 10.781C1.61494 11.2811 1.33398 11.9594 1.33398 12.6667V14" stroke="#2C2C2C" stroke-width="1.33333" stroke-linecap="round" stroke-linejoin="round"/>
<path d="M10.666 2.08533C11.2379 2.23357 11.7443 2.5675 12.1058 3.0347C12.4673 3.5019 12.6635 4.07592 12.6635 4.66666C12.6635 5.2574 12.4673 5.83142 12.1058 6.29862C11.7443 6.76582 11.2379 7.09975 10.666 7.24799" stroke="#2C2C2C" stroke-width="1.33333" stroke-linecap="round" stroke-linejoin="round"/>
<path d="M14.666 14V12.6667C14.6656 12.0758 14.4689 11.5019 14.1069 11.0349C13.7449 10.5679 13.2381 10.2344 12.666 10.0867" stroke="#2C2C2C" stroke-width="1.33333" stroke-linecap="round" stroke-linejoin="round"/>
<path d="M6.00065 7.33333C7.47341 7.33333 8.66732 6.13943 8.66732 4.66667C8.66732 3.19391 7.47341 2 6.00065 2C4.52789 2 3.33398 3.19391 3.33398 4.66667C3.33398 6.13943 4.52789 7.33333 6.00065 7.33333Z" stroke="#2C2C2C" stroke-width="1.33333" stroke-linecap="round" stroke-linejoin="round"/>
</svg>
