<svg width="16" height="16" viewBox="0 0 16 16" fill="none" xmlns="http://www.w3.org/2000/svg">
<g clip-path="url(#clip0_124_26138)">
<path d="M13.3189 6.65925C13.3189 9.98422 9.63031 13.447 8.39169 14.5165C8.2763 14.6033 8.13584 14.6502 7.99147 14.6502C7.84709 14.6502 7.70663 14.6033 7.59124 14.5165C6.35262 13.447 2.66406 9.98422 2.66406 6.65925C2.66406 5.24634 3.22534 3.89129 4.22442 2.89221C5.2235 1.89313 6.57855 1.33185 7.99147 1.33185C9.40438 1.33185 10.7594 1.89313 11.7585 2.89221C12.7576 3.89129 13.3189 5.24634 13.3189 6.65925Z" stroke="#6B6560" stroke-width="1.33185" stroke-linecap="round" stroke-linejoin="round"/>
<path d="M7.99192 8.65703C9.09526 8.65703 9.98969 7.76259 9.98969 6.65925C9.98969 5.55591 9.09526 4.66148 7.99192 4.66148C6.88858 4.66148 5.99414 5.55591 5.99414 6.65925C5.99414 7.76259 6.88858 8.65703 7.99192 8.65703Z" stroke="#6B6560" stroke-width="1.33185" stroke-linecap="round" stroke-linejoin="round"/>
</g>
<defs>
<clipPath id="clip0_124_26138">
<rect width="15.9822" height="15.9822" fill="white"/>
</clipPath>
</defs>
</svg>
