<svg width="20" height="20" viewBox="0 0 20 20" fill="none" xmlns="http://www.w3.org/2000/svg">
<path d="M15.8298 2.5H4.16536C3.24507 2.5 2.49902 3.24605 2.49902 4.16634V15.8307C2.49902 16.751 3.24507 17.4971 4.16536 17.4971H15.8298C16.75 17.4971 17.4961 16.751 17.4961 15.8307V4.16634C17.4961 3.24605 16.75 2.5 15.8298 2.5Z" stroke="#8B6F47" stroke-width="1.66634" stroke-linecap="round" stroke-linejoin="round"/>
<path d="M7.49837 9.16471C8.41867 9.16471 9.16471 8.41867 9.16471 7.49837C9.16471 6.57808 8.41867 5.83203 7.49837 5.83203C6.57808 5.83203 5.83203 6.57808 5.83203 7.49837C5.83203 8.41867 6.57808 9.16471 7.49837 9.16471Z" stroke="#8B6F47" stroke-width="1.66634" stroke-linecap="round" stroke-linejoin="round"/>
<path d="M17.4966 12.4985L14.9254 9.92733C14.6129 9.61494 14.1892 9.43945 13.7473 9.43945C13.3055 9.43945 12.8817 9.61494 12.5692 9.92733L4.99902 17.4975" stroke="#8B6F47" stroke-width="1.66634" stroke-linecap="round" stroke-linejoin="round"/>
</svg>
