<svg width="24" height="24" viewBox="0 0 24 24" fill="none" xmlns="http://www.w3.org/2000/svg">
<path d="M18.9944 2.99902H4.9993C3.89512 2.99902 3 3.89414 3 4.99833V18.9935C3 20.0976 3.89512 20.9928 4.9993 20.9928H18.9944C20.0986 20.9928 20.9937 20.0976 20.9937 18.9935V4.99833C20.9937 3.89414 20.0986 2.99902 18.9944 2.99902Z" stroke="#0A0A0A" stroke-width="1.9993" stroke-linecap="round" stroke-linejoin="round"/>
<path d="M8.9954 10.9962C10.0996 10.9962 10.9947 10.101 10.9947 8.99686C10.9947 7.89268 10.0996 6.99756 8.9954 6.99756C7.89121 6.99756 6.99609 7.89268 6.99609 8.99686C6.99609 10.101 7.89121 10.9962 8.9954 10.9962Z" stroke="#0A0A0A" stroke-width="1.9993" stroke-linecap="round" stroke-linejoin="round"/>
<path d="M20.9909 14.995L17.9059 11.9101C17.531 11.5353 17.0226 11.3247 16.4924 11.3247C15.9623 11.3247 15.4539 11.5353 15.0789 11.9101L5.99609 20.9929" stroke="#0A0A0A" stroke-width="1.9993" stroke-linecap="round" stroke-linejoin="round"/>
</svg>
