<svg width="24" height="24" viewBox="0 0 24 24" fill="none" xmlns="http://www.w3.org/2000/svg">
<path d="M12.8267 2.17932C12.5662 2.06051 12.2833 1.99902 11.997 1.99902C11.7107 1.99902 11.4277 2.06051 11.1673 2.17932L2.60024 6.07796C2.42286 6.15618 2.27204 6.28429 2.16616 6.44669C2.06028 6.60909 2.00391 6.79877 2.00391 6.99264C2.00391 7.18651 2.06028 7.37619 2.16616 7.53859C2.27204 7.701 2.42286 7.82911 2.60024 7.90732L11.1773 11.816C11.4377 11.9348 11.7207 11.9963 12.007 11.9963C12.2933 11.9963 12.5762 11.9348 12.8367 11.816L21.4137 7.91732C21.5911 7.8391 21.7419 7.71099 21.8478 7.54859C21.9537 7.38619 22.01 7.19651 22.01 7.00264C22.01 6.80877 21.9537 6.61908 21.8478 6.45668C21.7419 6.29428 21.5911 6.16617 21.4137 6.08796L12.8267 2.17932Z" stroke="#00A63E" stroke-width="1.9993" stroke-linecap="round" stroke-linejoin="round"/>
<path d="M2 11.9956C1.99953 12.1868 2.0539 12.3741 2.15667 12.5354C2.25943 12.6966 2.40628 12.825 2.5798 12.9053L11.1768 16.8139C11.4359 16.9313 11.7171 16.992 12.0015 16.992C12.286 16.992 12.5671 16.9313 12.8262 16.8139L21.4032 12.9153C21.5802 12.8358 21.7302 12.7065 21.8349 12.5431C21.9396 12.3798 21.9946 12.1896 21.993 11.9956" stroke="#00A63E" stroke-width="1.9993" stroke-linecap="round" stroke-linejoin="round"/>
<path d="M2 16.9941C1.99953 17.1853 2.0539 17.3727 2.15667 17.5339C2.25943 17.6951 2.40628 17.8235 2.5798 17.9038L11.1768 21.8125C11.4359 21.9298 11.7171 21.9905 12.0015 21.9905C12.286 21.9905 12.5671 21.9298 12.8262 21.8125L21.4032 17.9138C21.5802 17.8343 21.7302 17.705 21.8349 17.5417C21.9396 17.3784 21.9946 17.1881 21.993 16.9941" stroke="#00A63E" stroke-width="1.9993" stroke-linecap="round" stroke-linejoin="round"/>
</svg>
