<svg width="32" height="32" viewBox="0 0 32 32" fill="none" xmlns="http://www.w3.org/2000/svg">
<path d="M25.3196 14.6588H6.66303C5.19107 14.6588 3.9978 15.852 3.9978 17.324V26.6523C3.9978 28.1242 5.19107 29.3175 6.66303 29.3175H25.3196C26.7916 29.3175 27.9849 28.1242 27.9849 26.6523V17.324C27.9849 15.852 26.7916 14.6588 25.3196 14.6588Z" stroke="white" stroke-width="2.66523" stroke-linecap="round" stroke-linejoin="round"/>
<path d="M9.32837 14.6588V9.32829C9.32837 7.56114 10.0304 5.86636 11.2799 4.61679C12.5295 3.36722 14.2243 2.66522 15.9914 2.66522C17.7586 2.66522 19.4534 3.36722 20.7029 4.61679C21.9525 5.86636 22.6545 7.56114 22.6545 9.32829V14.6588" stroke="white" stroke-width="2.66523" stroke-linecap="round" stroke-linejoin="round"/>
</svg>
