<svg width="20" height="20" viewBox="0 0 20 20" fill="none" xmlns="http://www.w3.org/2000/svg">
<g clip-path="url(#clip0_124_27002)">
<path d="M1.66602 7.91511C1.66603 6.98796 1.94729 6.08262 2.47264 5.31867C2.99798 4.55472 3.74271 3.9681 4.60845 3.63628C5.47419 3.30446 6.42022 3.24306 7.32159 3.46018C8.22296 3.67731 9.03726 4.16274 9.65695 4.85238C9.7006 4.89904 9.75337 4.93625 9.81199 4.96169C9.8706 4.98712 9.93382 5.00025 9.99772 5.00025C10.0616 5.00025 10.1248 4.98712 10.1835 4.96169C10.2421 4.93625 10.2948 4.89904 10.3385 4.85238C10.9562 4.15826 11.7707 3.66875 12.6736 3.44898C13.5764 3.22922 14.5247 3.28964 15.3924 3.62219C16.26 3.95473 17.0058 4.54365 17.5305 5.31054C18.0552 6.07743 18.3338 6.98593 18.3294 7.91511C18.3294 9.82307 17.0797 11.2478 15.8299 12.4975L11.2541 16.9242C11.0989 17.1025 10.9075 17.2457 10.6926 17.3444C10.4778 17.443 10.2444 17.4948 10.008 17.4963C9.77154 17.4978 9.53752 17.4489 9.32142 17.353C9.10533 17.2571 8.91212 17.1163 8.75463 16.94L4.16553 12.4975C2.91577 11.2478 1.66602 9.8314 1.66602 7.91511Z" stroke="#1A1A1A" stroke-width="1.66634" stroke-linecap="round" stroke-linejoin="round"/>
</g>
<defs>
<clipPath id="clip0_124_27002">
<rect width="19.9961" height="19.9961" fill="white"/>
</clipPath>
</defs>
</svg>
