<svg width="20" height="20" viewBox="0 0 20 20" fill="none" xmlns="http://www.w3.org/2000/svg">
<path d="M9.60249 1.91171C9.639 1.83794 9.6954 1.77585 9.76533 1.73243C9.83526 1.68902 9.91593 1.66602 9.99824 1.66602C10.0806 1.66602 10.1612 1.68902 10.2312 1.73243C10.3011 1.77585 10.3575 1.83794 10.394 1.91171L12.3186 5.81012C12.4454 6.06671 12.6326 6.2887 12.864 6.45703C13.0955 6.62537 13.3644 6.73503 13.6475 6.77659L17.9517 7.40647C18.0332 7.41829 18.1099 7.45269 18.1729 7.50578C18.2359 7.55888 18.2828 7.62855 18.3083 7.70692C18.3338 7.78528 18.3368 7.86922 18.3171 7.94923C18.2974 8.02924 18.2556 8.10213 18.1966 8.15966L15.0839 11.1907C14.8786 11.3908 14.725 11.6377 14.6364 11.9103C14.5477 12.1829 14.5266 12.4729 14.5748 12.7554L15.3097 17.0379C15.3241 17.1194 15.3153 17.2034 15.2843 17.2801C15.2533 17.3569 15.2013 17.4234 15.1344 17.472C15.0674 17.5206 14.9881 17.5495 14.9055 17.5552C14.8229 17.561 14.7404 17.5434 14.6673 17.5045L10.8197 15.4816C10.5662 15.3484 10.2842 15.2789 9.99783 15.2789C9.71148 15.2789 9.42942 15.3484 9.1759 15.4816L5.32916 17.5045C5.25611 17.5432 5.17368 17.5606 5.09124 17.5547C5.00881 17.5488 4.92967 17.52 4.86283 17.4714C4.79599 17.4227 4.74413 17.3563 4.71316 17.2797C4.68218 17.2031 4.67333 17.1193 4.68761 17.0379L5.42164 12.7563C5.47012 12.4736 5.44912 12.1834 5.36043 11.9106C5.27174 11.6379 5.11804 11.3908 4.91257 11.1907L1.79985 8.16049C1.74035 8.10303 1.69819 8.03001 1.67817 7.94976C1.65815 7.86951 1.66107 7.78525 1.6866 7.70657C1.71213 7.6279 1.75924 7.55798 1.82257 7.50477C1.8859 7.45157 1.9629 7.41722 2.0448 7.40564L6.34812 6.77659C6.63161 6.73535 6.90084 6.62584 7.13262 6.45748C7.36441 6.28912 7.55181 6.06696 7.6787 5.81012L9.60249 1.91171Z" stroke="#D1D5DC" stroke-width="1.66634" stroke-linecap="round" stroke-linejoin="round"/>
</svg>
