<svg width="16" height="16" viewBox="0 0 16 16" fill="none" xmlns="http://www.w3.org/2000/svg">
<path d="M10.6555 6.65918C10.6555 7.36564 10.3749 8.04316 9.87535 8.5427C9.37581 9.04224 8.69828 9.32288 7.99183 9.32288C7.28537 9.32288 6.60785 9.04224 6.1083 8.5427C5.60876 8.04316 5.32813 7.36564 5.32812 6.65918" stroke="#6B6560" stroke-width="1.33185" stroke-linecap="round" stroke-linejoin="round"/>
<path d="M2.06641 4.01855H13.9159" stroke="#6B6560" stroke-width="1.33185" stroke-linecap="round" stroke-linejoin="round"/>
<path d="M2.26442 3.64079C2.09151 3.87133 1.99805 4.15173 1.99805 4.4399V13.3187C1.99805 13.6719 2.13837 14.0107 2.38814 14.2604C2.63791 14.5102 2.97667 14.6505 3.3299 14.6505H12.6529C13.0061 14.6505 13.3448 14.5102 13.5946 14.2604C13.8444 14.0107 13.9847 13.6719 13.9847 13.3187V4.4399C13.9847 4.15173 13.8912 3.87133 13.7183 3.64079L12.3865 1.86477C12.2624 1.69936 12.1016 1.56511 11.9166 1.47264C11.7317 1.38017 11.5278 1.33203 11.321 1.33203H4.66175C4.45499 1.33203 4.25106 1.38017 4.06613 1.47264C3.88119 1.56511 3.72033 1.69936 3.59627 1.86477L2.26442 3.64079Z" stroke="#6B6560" stroke-width="1.33185" stroke-linecap="round" stroke-linejoin="round"/>
</svg>
