<svg width="24" height="24" viewBox="0 0 24 24" fill="none" xmlns="http://www.w3.org/2000/svg">
<path d="M20.9937 11.9959C20.9937 13.7753 20.4661 15.5148 19.4775 16.9943C18.4889 18.4738 17.0838 19.627 15.4398 20.3079C13.7959 20.9889 11.9869 21.167 10.2417 20.8199C8.49645 20.4727 6.89336 19.6159 5.63512 18.3576C4.37689 17.0994 3.52002 15.4963 3.17288 13.7511C2.82573 12.0059 3.0039 10.1969 3.68485 8.55294C4.3658 6.90898 5.51895 5.50386 6.99848 4.51527C8.47801 3.52668 10.2175 2.99902 11.9969 2.99902C14.516 2.99902 16.9252 3.99867 18.7345 5.73807L20.9937 7.99728" stroke="#0A0A0A" stroke-width="1.9993" stroke-linecap="round" stroke-linejoin="round"/>
<path d="M20.9944 2.99902V7.99728H15.9961" stroke="#0A0A0A" stroke-width="1.9993" stroke-linecap="round" stroke-linejoin="round"/>
</svg>
