<svg width="16" height="16" viewBox="0 0 16 16" fill="none" xmlns="http://www.w3.org/2000/svg">
<g clip-path="url(#clip0_452_17010)">
<path d="M14.5184 6.65975C14.8225 8.15229 14.6058 9.70398 13.9043 11.0561C13.2029 12.4081 12.0591 13.4789 10.6637 14.0897C9.26835 14.7005 7.70575 14.8145 6.2365 14.4127C4.76725 14.0109 3.48016 13.1175 2.58988 11.8816C1.69959 10.6456 1.25992 9.14181 1.34419 7.62094C1.42846 6.10006 2.03157 4.65404 3.05294 3.52402C4.07432 2.394 5.45223 1.64828 6.95687 1.41123C8.46152 1.17417 10.002 1.46011 11.3213 2.22136" stroke="white" stroke-width="1.33185" stroke-linecap="round" stroke-linejoin="round"/>
<path d="M5.99316 7.32554L7.99094 9.32332L14.6502 2.66406" stroke="white" stroke-width="1.33185" stroke-linecap="round" stroke-linejoin="round"/>
</g>
<defs>
<clipPath id="clip0_452_17010">
<rect width="15.9822" height="15.9822" fill="white"/>
</clipPath>
</defs>
</svg>
