<svg width="16" height="16" viewBox="0 0 16 16" fill="none" xmlns="http://www.w3.org/2000/svg">
<g clip-path="url(#clip0_125_29287)">
<path d="M5.33073 14.6666C5.69892 14.6666 5.9974 14.3682 5.9974 14C5.9974 13.6318 5.69892 13.3333 5.33073 13.3333C4.96254 13.3333 4.66406 13.6318 4.66406 14C4.66406 14.3682 4.96254 14.6666 5.33073 14.6666Z" stroke="#1A1A1A" stroke-width="1.33333" stroke-linecap="round" stroke-linejoin="round"/>
<path d="M12.6667 14.6666C13.0349 14.6666 13.3333 14.3682 13.3333 14C13.3333 13.6318 13.0349 13.3333 12.6667 13.3333C12.2985 13.3333 12 13.6318 12 14C12 14.3682 12.2985 14.6666 12.6667 14.6666Z" stroke="#1A1A1A" stroke-width="1.33333" stroke-linecap="round" stroke-linejoin="round"/>
<path d="M1.36719 1.36664H2.70052L4.47385 9.64664C4.53891 9.94988 4.70763 10.221 4.951 10.4132C5.19436 10.6055 5.49712 10.7069 5.80719 10.7H12.3272C12.6306 10.6995 12.9248 10.5955 13.1612 10.4052C13.3976 10.2149 13.5619 9.94966 13.6272 9.6533L14.7272 4.69997H3.41385" stroke="#1A1A1A" stroke-width="1.33333" stroke-linecap="round" stroke-linejoin="round"/>
</g>
<defs>
<clipPath id="clip0_125_29287">
<rect width="16" height="16" fill="white"/>
</clipPath>
</defs>
</svg>
