<svg width="16" height="16" viewBox="0 0 16 16" fill="none" xmlns="http://www.w3.org/2000/svg">
<g clip-path="url(#clip0_439_13853)">
<path d="M5.32608 14.6502C5.69386 14.6502 5.99201 14.3521 5.99201 13.9843C5.99201 13.6165 5.69386 13.3184 5.32608 13.3184C4.9583 13.3184 4.66016 13.6165 4.66016 13.9843C4.66016 14.3521 4.9583 14.6502 5.32608 14.6502Z" stroke="white" stroke-width="1.33185" stroke-linecap="round" stroke-linejoin="round"/>
<path d="M12.6542 14.6502C13.022 14.6502 13.3201 14.3521 13.3201 13.9843C13.3201 13.6165 13.022 13.3184 12.6542 13.3184C12.2864 13.3184 11.9883 13.6165 11.9883 13.9843C11.9883 14.3521 12.2864 14.6502 12.6542 14.6502Z" stroke="white" stroke-width="1.33185" stroke-linecap="round" stroke-linejoin="round"/>
<path d="M1.36328 1.36523H2.69513L4.46649 9.63603C4.53147 9.93893 4.70001 10.2097 4.9431 10.4017C5.18619 10.5938 5.48863 10.6951 5.79834 10.6882H12.3111C12.6142 10.6877 12.9081 10.5838 13.1442 10.3937C13.3803 10.2037 13.5445 9.93871 13.6096 9.64269L14.7084 4.69486H3.40767" stroke="white" stroke-width="1.33185" stroke-linecap="round" stroke-linejoin="round"/>
</g>
<defs>
<clipPath id="clip0_439_13853">
<rect width="15.9822" height="15.9822" fill="white"/>
</clipPath>
</defs>
</svg>
