<svg width="24" height="24" viewBox="0 0 24 24" fill="none" xmlns="http://www.w3.org/2000/svg">
<path d="M7.99756 21.9932C8.54984 21.9932 8.99756 21.5454 8.99756 20.9932C8.99756 20.4409 8.54984 19.9932 7.99756 19.9932C7.44527 19.9932 6.99756 20.4409 6.99756 20.9932C6.99756 21.5454 7.44527 21.9932 7.99756 21.9932Z" stroke="#8B6F47" stroke-width="1.9993" stroke-linecap="round" stroke-linejoin="round"/>
<path d="M18.9937 21.9932C19.5459 21.9932 19.9937 21.5454 19.9937 20.9932C19.9937 20.4409 19.5459 19.9932 18.9937 19.9932C18.4414 19.9932 17.9937 20.4409 17.9937 20.9932C17.9937 21.5454 18.4414 21.9932 18.9937 21.9932Z" stroke="#8B6F47" stroke-width="1.9993" stroke-linecap="round" stroke-linejoin="round"/>
<path d="M2.04932 2.04883H4.04862L6.70769 14.4645C6.80524 14.9192 7.05824 15.3257 7.42316 15.614C7.78807 15.9022 8.24206 16.0543 8.707 16.044H18.4836C18.9386 16.0432 19.3798 15.8873 19.7342 15.6019C20.0886 15.3166 20.3351 14.9189 20.4329 14.4745L22.0823 7.04709H5.11825" stroke="#8B6F47" stroke-width="1.9993" stroke-linecap="round" stroke-linejoin="round"/>
</svg>
