<svg width="24" height="24" viewBox="0 0 24 24" fill="none" xmlns="http://www.w3.org/2000/svg">
<path d="M11.0123 2.81318C11.0552 2.58386 11.1769 2.37675 11.3563 2.2277C11.5358 2.07866 11.7617 1.99707 11.995 1.99707C12.2283 1.99707 12.4542 2.07866 12.6337 2.2277C12.8131 2.37675 12.9348 2.58386 12.9777 2.81318L14.0283 8.36924C14.1029 8.76426 14.2949 9.1276 14.5791 9.41185C14.8634 9.69611 15.2267 9.88807 15.6217 9.96269L21.1778 11.0133C21.4071 11.0562 21.6142 11.1778 21.7633 11.3573C21.9123 11.5368 21.9939 11.7627 21.9939 11.996C21.9939 12.2293 21.9123 12.4552 21.7633 12.6347C21.6142 12.8141 21.4071 12.9358 21.1778 12.9786L15.6217 14.0293C15.2267 14.1039 14.8634 14.2959 14.5791 14.5801C14.2949 14.8644 14.1029 15.2277 14.0283 15.6227L12.9777 21.1788C12.9348 21.4081 12.8131 21.6152 12.6337 21.7643C12.4542 21.9133 12.2283 21.9949 11.995 21.9949C11.7617 21.9949 11.5358 21.9133 11.3563 21.7643C11.1769 21.6152 11.0552 21.4081 11.0123 21.1788L9.96171 15.6227C9.88709 15.2277 9.69513 14.8644 9.41088 14.5801C9.12662 14.2959 8.76328 14.1039 8.36827 14.0293L2.8122 12.9786C2.58289 12.9358 2.37577 12.8141 2.22673 12.6347C2.07768 12.4552 1.99609 12.2293 1.99609 11.996C1.99609 11.7627 2.07768 11.5368 2.22673 11.3573C2.37577 11.1778 2.58289 11.0562 2.8122 11.0133L8.36827 9.96269C8.76328 9.88807 9.12662 9.69611 9.41088 9.41185C9.69513 9.1276 9.88709 8.76426 9.96171 8.36924L11.0123 2.81318Z" stroke="#0A0A0A" stroke-width="1.9993" stroke-linecap="round" stroke-linejoin="round"/>
<path d="M19.9922 1.99951V5.99812" stroke="#0A0A0A" stroke-width="1.9993" stroke-linecap="round" stroke-linejoin="round"/>
<path d="M21.9908 3.99854H17.9922" stroke="#0A0A0A" stroke-width="1.9993" stroke-linecap="round" stroke-linejoin="round"/>
<path d="M3.9993 21.9923C5.10349 21.9923 5.99861 21.0971 5.99861 19.993C5.99861 18.8888 5.10349 17.9937 3.9993 17.9937C2.89512 17.9937 2 18.8888 2 19.993C2 21.0971 2.89512 21.9923 3.9993 21.9923Z" stroke="#0A0A0A" stroke-width="1.9993" stroke-linecap="round" stroke-linejoin="round"/>
</svg>
