<svg width="20" height="20" viewBox="0 0 20 20" fill="none" xmlns="http://www.w3.org/2000/svg">
<g clip-path="url(#clip0_439_13757)">
<path d="M9.17876 2.34475C9.21445 2.15362 9.31587 1.981 9.46545 1.85677C9.61502 1.73255 9.80333 1.66455 9.99776 1.66455C10.1922 1.66455 10.3805 1.73255 10.5301 1.85677C10.6797 1.981 10.7811 2.15362 10.8168 2.34475L11.6924 6.97551C11.7546 7.30473 11.9146 7.60756 12.1515 7.84448C12.3884 8.08139 12.6913 8.24139 13.0205 8.30358L17.6513 9.17924C17.8424 9.21494 18.015 9.31636 18.1392 9.46594C18.2635 9.61551 18.3315 9.80382 18.3315 9.99825C18.3315 10.1927 18.2635 10.381 18.1392 10.5306C18.015 10.6801 17.8424 10.7816 17.6513 10.8173L13.0205 11.6929C12.6913 11.7551 12.3884 11.9151 12.1515 12.152C11.9146 12.3889 11.7546 12.6918 11.6924 13.021L10.8168 17.6518C10.7811 17.8429 10.6797 18.0155 10.5301 18.1397C10.3805 18.2639 10.1922 18.3319 9.99776 18.3319C9.80333 18.3319 9.61502 18.2639 9.46545 18.1397C9.31587 18.0155 9.21445 17.8429 9.17876 17.6518L8.30309 13.021C8.2409 12.6918 8.08091 12.3889 7.84399 12.152C7.60708 11.9151 7.30425 11.7551 6.97502 11.6929L2.34426 10.8173C2.15313 10.7816 1.98051 10.6801 1.85629 10.5306C1.73206 10.381 1.66406 10.1927 1.66406 9.99825C1.66406 9.80382 1.73206 9.61551 1.85629 9.46594C1.98051 9.31636 2.15313 9.21494 2.34426 9.17924L6.97502 8.30358C7.30425 8.24139 7.60708 8.08139 7.84399 7.84448C8.08091 7.60756 8.2409 7.30473 8.30309 6.97551L9.17876 2.34475Z" stroke="#D4AF37" stroke-width="1.66634" stroke-linecap="round" stroke-linejoin="round"/>
<path d="M16.6641 1.6665V4.99919" stroke="#D4AF37" stroke-width="1.66634" stroke-linecap="round" stroke-linejoin="round"/>
<path d="M18.3288 3.33252H14.9961" stroke="#D4AF37" stroke-width="1.66634" stroke-linecap="round" stroke-linejoin="round"/>
<path d="M3.33431 18.3298C4.2546 18.3298 5.00065 17.5837 5.00065 16.6634C5.00065 15.7431 4.2546 14.9971 3.33431 14.9971C2.41401 14.9971 1.66797 15.7431 1.66797 16.6634C1.66797 17.5837 2.41401 18.3298 3.33431 18.3298Z" stroke="#D4AF37" stroke-width="1.66634" stroke-linecap="round" stroke-linejoin="round"/>
</g>
<defs>
<clipPath id="clip0_439_13757">
<rect width="19.9961" height="19.9961" fill="white"/>
</clipPath>
</defs>
</svg>
