<svg width="24" height="24" viewBox="0 0 24 24" fill="none" xmlns="http://www.w3.org/2000/svg">
<path d="M11.0133 2.81303C11.0562 2.58371 11.1778 2.3766 11.3573 2.22755C11.5368 2.07851 11.7627 1.99692 11.996 1.99692C12.2293 1.99692 12.4552 2.07851 12.6347 2.22755C12.8141 2.3766 12.9358 2.58371 12.9786 2.81303L14.0293 8.36909C14.1039 8.7641 14.2959 9.12744 14.5801 9.4117C14.8644 9.69595 15.2277 9.88792 15.6227 9.96254L21.1788 11.0132C21.4081 11.056 21.6152 11.1777 21.7643 11.3571C21.9133 11.5366 21.9949 11.7625 21.9949 11.9958C21.9949 12.2291 21.9133 12.455 21.7643 12.6345C21.6152 12.814 21.4081 12.9357 21.1788 12.9785L15.6227 14.0291C15.2277 14.1037 14.8644 14.2957 14.5801 14.58C14.2959 14.8642 14.1039 15.2276 14.0293 15.6226L12.9786 21.1786C12.9358 21.4079 12.8141 21.6151 12.6347 21.7641C12.4552 21.9132 12.2293 21.9947 11.996 21.9947C11.7627 21.9947 11.5368 21.9132 11.3573 21.7641C11.1778 21.6151 11.0562 21.4079 11.0133 21.1786L9.96269 15.6226C9.88807 15.2276 9.69611 14.8642 9.41185 14.58C9.1276 14.2957 8.76426 14.1037 8.36924 14.0291L2.81318 12.9785C2.58386 12.9357 2.37675 12.814 2.2277 12.6345C2.07866 12.455 1.99707 12.2291 1.99707 11.9958C1.99707 11.7625 2.07866 11.5366 2.2277 11.3571C2.37675 11.1777 2.58386 11.056 2.81318 11.0132L8.36924 9.96254C8.76426 9.88792 9.1276 9.69595 9.41185 9.4117C9.69611 9.12744 9.88807 8.7641 9.96269 8.36909L11.0133 2.81303Z" stroke="black" stroke-width="1.9993" stroke-linecap="round" stroke-linejoin="round"/>
<path d="M19.9932 1.9993V5.99791" stroke="black" stroke-width="1.9993" stroke-linecap="round" stroke-linejoin="round"/>
<path d="M21.9927 3.99861H17.9941" stroke="black" stroke-width="1.9993" stroke-linecap="round" stroke-linejoin="round"/>
<path d="M3.99833 21.9923C5.10251 21.9923 5.99763 21.0972 5.99763 19.993C5.99763 18.8888 5.10251 17.9937 3.99833 17.9937C2.89414 17.9937 1.99902 18.8888 1.99902 19.993C1.99902 21.0972 2.89414 21.9923 3.99833 21.9923Z" stroke="black" stroke-width="1.9993" stroke-linecap="round" stroke-linejoin="round"/>
</svg>
