<svg width="20" height="20" viewBox="0 0 20 20" fill="none" xmlns="http://www.w3.org/2000/svg">
<g clip-path="url(#clip0_452_16887)">
<path d="M10.486 2.15425C10.1735 1.84173 9.74976 1.66611 9.30786 1.66602H3.33236C2.89042 1.66602 2.46658 1.84158 2.15408 2.15408C1.84158 2.46658 1.66602 2.89042 1.66602 3.33236V9.30786C1.66611 9.74976 1.84173 10.1735 2.15425 10.486L9.40617 17.7379C9.78486 18.1142 10.297 18.3254 10.8309 18.3254C11.3647 18.3254 11.8769 18.1142 12.2556 17.7379L17.7379 12.2556C18.1142 11.8769 18.3254 11.3647 18.3254 10.8309C18.3254 10.297 18.1142 9.78486 17.7379 9.40617L10.486 2.15425Z" stroke="#9810FA" stroke-width="1.66634" stroke-linecap="round" stroke-linejoin="round"/>
<path d="M6.24862 6.6652C6.47869 6.6652 6.6652 6.47869 6.6652 6.24862C6.6652 6.01854 6.47869 5.83203 6.24862 5.83203C6.01854 5.83203 5.83203 6.01854 5.83203 6.24862C5.83203 6.47869 6.01854 6.6652 6.24862 6.6652Z" fill="#9810FA" stroke="#9810FA" stroke-width="1.66634" stroke-linecap="round" stroke-linejoin="round"/>
</g>
<defs>
<clipPath id="clip0_452_16887">
<rect width="19.9961" height="19.9961" fill="white"/>
</clipPath>
</defs>
</svg>
