<svg width="20" height="20" viewBox="0 0 20 20" fill="none" xmlns="http://www.w3.org/2000/svg">
<g clip-path="url(#clip0_36_20722)">
<path d="M3.33308 11.6644C3.17542 11.6649 3.02084 11.6207 2.8873 11.5369C2.75376 11.4531 2.64674 11.3331 2.57869 11.1909C2.51063 11.0487 2.48433 10.89 2.50283 10.7335C2.52133 10.5769 2.58388 10.4288 2.68321 10.3063L10.9316 1.80799C10.9935 1.73658 11.0778 1.68831 11.1707 1.67113C11.2636 1.65395 11.3596 1.66886 11.4429 1.71343C11.5263 1.758 11.592 1.82957 11.6292 1.9164C11.6665 2.00322 11.6732 2.10014 11.6481 2.19125L10.0484 7.20694C10.0013 7.33318 9.98542 7.46899 10.0023 7.6027C10.0191 7.73641 10.0681 7.86404 10.1452 7.97464C10.2222 8.08524 10.3249 8.17551 10.4444 8.2377C10.564 8.2999 10.6968 8.33216 10.8316 8.33172H16.6638C16.8215 8.33118 16.9761 8.37539 17.1096 8.45921C17.2431 8.54303 17.3501 8.66302 17.4182 8.80524C17.4863 8.94747 17.5126 9.10608 17.4941 9.26265C17.4756 9.41923 17.413 9.56734 17.3137 9.68979L9.06529 18.1881C9.00342 18.2595 8.91911 18.3078 8.82619 18.325C8.73327 18.3422 8.63727 18.3273 8.55395 18.2827C8.47063 18.2381 8.40494 18.1665 8.36765 18.0797C8.33037 17.9929 8.32371 17.896 8.34877 17.8049L9.94845 12.7892C9.99563 12.6629 10.0115 12.5271 9.99462 12.3934C9.97777 12.2597 9.92874 12.1321 9.85173 12.0215C9.77472 11.9109 9.67203 11.8206 9.55247 11.7584C9.43291 11.6962 9.30004 11.664 9.16528 11.6644H3.33308Z" stroke="#1A1A1A" stroke-width="1.66634" stroke-linecap="round" stroke-linejoin="round"/>
</g>
<defs>
<clipPath id="clip0_36_20722">
<rect width="19.9961" height="19.9961" fill="white"/>
</clipPath>
</defs>
</svg>
