<svg width="24" height="24" viewBox="0 0 24 24" fill="none" xmlns="http://www.w3.org/2000/svg">
<path d="M13.9949 16.9941H4.99805" stroke="#155DFC" stroke-width="1.9993" stroke-linecap="round" stroke-linejoin="round"/>
<path d="M18.993 6.99805H9.99609" stroke="#155DFC" stroke-width="1.9993" stroke-linecap="round" stroke-linejoin="round"/>
<path d="M16.9941 19.994C18.6503 19.994 19.993 18.6513 19.993 16.995C19.993 15.3388 18.6503 13.9961 16.9941 13.9961C15.3378 13.9961 13.9951 15.3388 13.9951 16.995C13.9951 18.6513 15.3378 19.994 16.9941 19.994Z" stroke="#155DFC" stroke-width="1.9993" stroke-linecap="round" stroke-linejoin="round"/>
<path d="M6.99798 9.99596C8.65426 9.99596 9.99693 8.65328 9.99693 6.997C9.99693 5.34072 8.65426 3.99805 6.99798 3.99805C5.3417 3.99805 3.99902 5.34072 3.99902 6.997C3.99902 8.65328 5.3417 9.99596 6.99798 9.99596Z" stroke="#155DFC" stroke-width="1.9993" stroke-linecap="round" stroke-linejoin="round"/>
</svg>
