<svg width="20" height="20" viewBox="0 0 20 20" fill="none" xmlns="http://www.w3.org/2000/svg">
<path d="M11.6641 14.9971V4.99904C11.6641 4.5571 11.4885 4.13326 11.176 3.82076C10.8635 3.50826 10.4397 3.3327 9.99772 3.3327H3.33236C2.89042 3.3327 2.46657 3.50826 2.15408 3.82076C1.84158 4.13326 1.66602 4.5571 1.66602 4.99904V14.1639C1.66602 14.3849 1.7538 14.5968 1.91005 14.7531C2.0663 14.9093 2.27822 14.9971 2.49919 14.9971H4.16553" stroke="#1A1A1A" stroke-width="1.66634" stroke-linecap="round" stroke-linejoin="round"/>
<path d="M12.4971 14.9971H7.49805" stroke="#1A1A1A" stroke-width="1.66634" stroke-linecap="round" stroke-linejoin="round"/>
<path d="M15.8299 14.997H17.4963C17.7172 14.997 17.9291 14.9093 18.0854 14.753C18.2416 14.5968 18.3294 14.3848 18.3294 14.1639V11.1228C18.3291 10.9337 18.2645 10.7504 18.1461 10.6029L15.2467 6.97862C15.1688 6.88104 15.0699 6.80222 14.9574 6.74799C14.8449 6.69377 14.7217 6.66552 14.5968 6.66534H11.6641" stroke="#1A1A1A" stroke-width="1.66634" stroke-linecap="round" stroke-linejoin="round"/>
<path d="M14.1634 16.6634C15.0837 16.6634 15.8298 15.9174 15.8298 14.9971C15.8298 14.0768 15.0837 13.3307 14.1634 13.3307C13.2431 13.3307 12.4971 14.0768 12.4971 14.9971C12.4971 15.9174 13.2431 16.6634 14.1634 16.6634Z" stroke="#1A1A1A" stroke-width="1.66634" stroke-linecap="round" stroke-linejoin="round"/>
<path d="M5.83236 16.6634C6.75265 16.6634 7.4987 15.9174 7.4987 14.9971C7.4987 14.0768 6.75265 13.3307 5.83236 13.3307C4.91206 13.3307 4.16602 14.0768 4.16602 14.9971C4.16602 15.9174 4.91206 16.6634 5.83236 16.6634Z" stroke="#1A1A1A" stroke-width="1.66634" stroke-linecap="round" stroke-linejoin="round"/>
</svg>
