<svg width="24" height="24" viewBox="0 0 24 24" fill="none" xmlns="http://www.w3.org/2000/svg">
<path d="M15.9941 20.993V18.9937C15.9941 17.9332 15.5729 16.9162 14.823 16.1663C14.0731 15.4164 13.056 14.9951 11.9955 14.9951H5.99763C4.93713 14.9951 3.92007 15.4164 3.17019 16.1663C2.4203 16.9162 1.99902 17.9332 1.99902 18.9937V20.993" stroke="#8B6F47" stroke-width="1.9993" stroke-linecap="round" stroke-linejoin="round"/>
<path d="M15.9941 3.12695C16.8516 3.34925 17.611 3.84997 18.1531 4.55052C18.6952 5.25107 18.9893 6.1118 18.9893 6.9976C18.9893 7.88341 18.6952 8.74414 18.1531 9.44469C17.611 10.1452 16.8516 10.646 15.9941 10.8683" stroke="#8B6F47" stroke-width="1.9993" stroke-linecap="round" stroke-linejoin="round"/>
<path d="M21.9921 20.993V18.9937C21.9915 18.1077 21.6966 17.247 21.1538 16.5468C20.611 15.8466 19.851 15.3465 18.9932 15.125" stroke="#8B6F47" stroke-width="1.9993" stroke-linecap="round" stroke-linejoin="round"/>
<path d="M8.99665 10.9962C11.205 10.9962 12.9953 9.206 12.9953 6.99763C12.9953 4.78926 11.205 2.99902 8.99665 2.99902C6.78828 2.99902 4.99805 4.78926 4.99805 6.99763C4.99805 9.206 6.78828 10.9962 8.99665 10.9962Z" stroke="#8B6F47" stroke-width="1.9993" stroke-linecap="round" stroke-linejoin="round"/>
</svg>
